<?xml version="1.0" encoding="UTF-8"?>
<!DOCTYPE svg PUBLIC "-//W3C//DTD SVG 1.1//EN" "http://www.w3.org/Graphics/SVG/1.1/DTD/svg11.dtd">
<svg xmlns="http://www.w3.org/2000/svg" version="1.1" width="601px" height="415px" style="shape-rendering:geometricPrecision; text-rendering:geometricPrecision; image-rendering:optimizeQuality; fill-rule:evenodd; clip-rule:evenodd" xmlns:xlink="http://www.w3.org/1999/xlink">
<g><path style="opacity:0.004" fill="#fefffe" d="M 553.5,8.5 C 554.833,9.16667 554.833,9.16667 553.5,8.5 Z"/></g>
<g><path style="opacity:0.008" fill="#fefffe" d="M 477.5,11.5 C 478.833,12.1667 478.833,12.1667 477.5,11.5 Z"/></g>
<g><path style="opacity:0.022" fill="#f5f5f5" d="M 415.5,20.5 C 415.66,18.8008 415.494,17.1341 415,15.5C 414.722,16.4158 414.222,17.0825 413.5,17.5C 413.5,16.5 413.5,15.5 413.5,14.5C 414.5,14.5 415.5,14.5 416.5,14.5C 416.795,16.7354 416.461,18.7354 415.5,20.5 Z"/></g>
<g><path style="opacity:0.008" fill="#fefffe" d="M 314.5,15.5 C 315.833,16.1667 315.833,16.1667 314.5,15.5 Z"/></g>
<g><path style="opacity:0.739" fill="#6d6d6d" d="M 415.5,20.5 C 415.802,23.0593 415.468,25.3926 414.5,27.5C 414.785,25.712 414.452,24.0453 413.5,22.5C 412.712,23.7701 411.712,24.7701 410.5,25.5C 410.94,22.6202 411.94,19.9535 413.5,17.5C 414.222,17.0825 414.722,16.4158 415,15.5C 415.494,17.1341 415.66,18.8008 415.5,20.5 Z"/></g>
<g><path style="opacity:0.991" fill="#060606" d="M 414.5,27.5 C 414.736,30.6085 414.403,33.6085 413.5,36.5C 411.771,45.3085 410.438,54.3085 409.5,63.5C 409.5,64.1667 409.5,64.8333 409.5,65.5C 407.292,71.8733 405.959,78.54 405.5,85.5C 405.483,87.5648 405.15,89.5648 404.5,91.5C 402.777,93.78 402.111,96.4467 402.5,99.5C 402.59,102.152 401.924,104.485 400.5,106.5C 399.087,109.219 398.42,112.219 398.5,115.5C 396.926,117.102 396.259,119.102 396.5,121.5C 396.5,122.167 396.5,122.833 396.5,123.5C 394.194,127.085 392.861,131.085 392.5,135.5C 392.279,138.067 391.612,140.401 390.5,142.5C 388.733,144.792 387.733,147.458 387.5,150.5C 371.511,198.49 351.844,244.823 328.5,289.5C 327.5,289.5 326.5,289.5 325.5,289.5C 325.5,291.167 325.5,292.833 325.5,294.5C 308.752,327.321 290.418,359.321 270.5,390.5C 269.094,390.973 268.427,391.973 268.5,393.5C 268.573,395.027 267.906,396.027 266.5,396.5C 265.883,396.611 265.383,396.944 265,397.5C 264.768,396.263 264.268,395.263 263.5,394.5C 263.917,384.275 263.251,374.275 261.5,364.5C 259.824,350.779 257.824,337.112 255.5,323.5C 255.706,320.505 255.04,317.838 253.5,315.5C 252.583,312.583 251.916,309.583 251.5,306.5C 251.277,302.838 250.277,299.505 248.5,296.5C 247.699,294.958 247.366,293.292 247.5,291.5C 247.072,288.215 246.072,285.215 244.5,282.5C 243.542,280.698 242.875,278.698 242.5,276.5C 242.267,273.458 241.267,270.792 239.5,268.5C 234.833,256.5 230.167,244.5 225.5,232.5C 225.715,230.821 225.048,229.821 223.5,229.5C 218.409,218.32 213.076,207.32 207.5,196.5C 207.715,194.821 207.048,193.821 205.5,193.5C 203.992,191.819 202.992,189.819 202.5,187.5C 202.573,185.973 201.906,184.973 200.5,184.5C 199.655,183.329 198.989,181.995 198.5,180.5C 198.573,178.973 197.906,177.973 196.5,177.5C 194.929,175.365 193.596,173.032 192.5,170.5C 192.573,168.973 191.906,167.973 190.5,167.5C 190.5,167.167 190.5,166.833 190.5,166.5C 190.446,164.368 189.446,163.035 187.5,162.5C 186.692,160.78 185.692,159.113 184.5,157.5C 184.25,155.326 183.25,153.659 181.5,152.5C 180.599,151.71 179.932,150.71 179.5,149.5C 179.573,147.973 178.906,146.973 177.5,146.5C 177.5,146.167 177.5,145.833 177.5,145.5C 177.167,144.5 176.5,143.833 175.5,143.5C 175.13,140.733 173.796,138.733 171.5,137.5C 171.573,135.973 170.906,134.973 169.5,134.5C 169.369,133.761 169.536,133.094 170,132.5C 170.816,133.823 171.983,134.489 173.5,134.5C 174.262,136.262 175.596,137.262 177.5,137.5C 177.973,138.906 178.973,139.573 180.5,139.5C 181.845,141.836 183.845,143.503 186.5,144.5C 187.492,144.328 188.158,144.662 188.5,145.5C 188.833,146.5 189.5,147.167 190.5,147.5C 191.492,147.328 192.158,147.662 192.5,148.5C 193.035,150.446 194.368,151.446 196.5,151.5C 197.035,153.446 198.368,154.446 200.5,154.5C 201.262,156.262 202.596,157.262 204.5,157.5C 205.167,157.5 205.5,157.833 205.5,158.5C 205.973,159.906 206.973,160.573 208.5,160.5C 209.035,162.446 210.368,163.446 212.5,163.5C 213.71,163.932 214.71,164.599 215.5,165.5C 216.539,167.531 218.205,168.864 220.5,169.5C 220.833,170.5 221.5,171.167 222.5,171.5C 224.223,173.218 226.223,174.551 228.5,175.5C 229.035,177.446 230.368,178.446 232.5,178.5C 233.035,180.446 234.368,181.446 236.5,181.5C 236.973,182.906 237.973,183.573 239.5,183.5C 240.539,185.531 242.205,186.864 244.5,187.5C 245.167,187.5 245.5,187.833 245.5,188.5C 245.973,189.906 246.973,190.573 248.5,190.5C 249.035,192.446 250.368,193.446 252.5,193.5C 253.262,195.262 254.596,196.262 256.5,196.5C 258.228,198.877 260.561,200.544 263.5,201.5C 264.035,203.446 265.368,204.446 267.5,204.5C 268.035,206.446 269.368,207.446 271.5,207.5C 271.973,208.906 272.973,209.573 274.5,209.5C 276.082,210.876 277.915,211.876 280,212.5C 282.279,211.609 284.446,210.609 286.5,209.5C 288.027,209.573 289.027,208.906 289.5,207.5C 291.027,207.573 292.027,206.906 292.5,205.5C 294.404,205.262 295.738,204.262 296.5,202.5C 298.749,201.92 300.415,200.587 301.5,198.5C 301.833,197.5 302.5,196.833 303.5,196.5C 306.427,195.243 308.761,193.243 310.5,190.5C 313.167,189.833 314.833,188.167 315.5,185.5C 317.5,185.5 318.5,184.5 318.5,182.5C 320.167,180.167 322.167,178.167 324.5,176.5C 326.914,175.089 328.581,173.089 329.5,170.5C 330.833,169.833 331.833,168.833 332.5,167.5C 332.5,166.833 332.833,166.5 333.5,166.5C 334.906,166.027 335.573,165.027 335.5,163.5C 335.833,162.5 336.5,161.833 337.5,161.5C 338.906,161.027 339.573,160.027 339.5,158.5C 341.262,157.738 342.262,156.404 342.5,154.5C 343.906,154.027 344.573,153.027 344.5,151.5C 345.5,151.167 346.167,150.5 346.5,149.5C 346.5,149.167 346.5,148.833 346.5,148.5C 348.587,147.415 349.92,145.749 350.5,143.5C 352.522,141.469 354.189,139.135 355.5,136.5C 355.5,136.167 355.5,135.833 355.5,135.5C 357.262,134.738 358.262,133.404 358.5,131.5C 358.328,130.508 358.662,129.842 359.5,129.5C 361.25,128.341 362.25,126.674 362.5,124.5C 363.906,124.027 364.573,123.027 364.5,121.5C 365.906,121.027 366.573,120.027 366.5,118.5C 368.924,115.992 370.59,112.992 371.5,109.5C 371.328,108.508 371.662,107.842 372.5,107.5C 374.588,105.664 375.921,103.331 376.5,100.5C 376.328,99.5084 376.662,98.8417 377.5,98.5C 379.588,96.6644 380.921,94.3311 381.5,91.5C 381.328,90.5084 381.662,89.8417 382.5,89.5C 384.008,87.8185 385.008,85.8185 385.5,83.5C 385.328,82.5084 385.662,81.8417 386.5,81.5C 388.341,79.1515 389.674,76.4848 390.5,73.5C 392.065,71.4907 393.065,69.1573 393.5,66.5C 393.66,64.847 394.326,63.5137 395.5,62.5C 397.213,61.3646 397.88,59.698 397.5,57.5C 399.818,55.8148 400.818,53.4815 400.5,50.5C 403.165,48.1645 404.498,45.1645 404.5,41.5C 404.5,41.1667 404.5,40.8333 404.5,40.5C 406.834,38.8243 407.834,36.491 407.5,33.5C 407.263,32.209 407.596,31.209 408.5,30.5C 409.931,29.2196 410.598,27.5529 410.5,25.5C 411.712,24.7701 412.712,23.7701 413.5,22.5C 414.452,24.0453 414.785,25.712 414.5,27.5 Z"/></g>
<g><path style="opacity:0.004" fill="#fefffe" d="M 232.5,25.5 C 233.833,26.1667 233.833,26.1667 232.5,25.5 Z"/></g>
<g><path style="opacity:0.022" fill="#e9e9e9" d="M 410.5,25.5 C 410.598,27.5529 409.931,29.2196 408.5,30.5C 408.402,28.4471 409.069,26.7804 410.5,25.5 Z"/></g>
<g><path style="opacity:0.008" fill="#fefffe" d="M 373.5,30.5 C 374.833,31.1667 374.833,31.1667 373.5,30.5 Z"/></g>
<g><path style="opacity:0.38" fill="#9b9b9b" d="M 407.5,33.5 C 407.834,36.491 406.834,38.8243 404.5,40.5C 404.707,37.7594 405.707,35.4261 407.5,33.5 Z"/></g>
<g><path style="opacity:0.022" fill="#bfbfbf" d="M 413.5,36.5 C 413.554,45.8314 412.22,54.8314 409.5,63.5C 410.438,54.3085 411.771,45.3085 413.5,36.5 Z"/></g>
<g><path style="opacity:0.643" fill="#8b8b8b" d="M 404.5,41.5 C 404.498,45.1645 403.165,48.1645 400.5,50.5C 401.042,47.0878 402.375,44.0878 404.5,41.5 Z"/></g>
<g><path style="opacity:0.022" fill="#c5c5c5" d="M 400.5,50.5 C 400.818,53.4815 399.818,55.8148 397.5,57.5C 397.707,54.7594 398.707,52.4261 400.5,50.5 Z"/></g>
<g><path style="opacity:0.004" fill="#fefffe" d="M 241.5,59.5 C 242.833,60.1667 242.833,60.1667 241.5,59.5 Z"/></g>
<g><path style="opacity:0.004" fill="#fefffe" d="M 337.5,60.5 C 338.833,61.1667 338.833,61.1667 337.5,60.5 Z"/></g>
<g><path style="opacity:0.533" fill="#8b8b8b" d="M 397.5,57.5 C 397.88,59.698 397.213,61.3646 395.5,62.5C 395.402,60.4471 396.069,58.7804 397.5,57.5 Z"/></g>
<g><path style="opacity:0.059" fill="#c4c4c4" d="M 393.5,66.5 C 393.065,69.1573 392.065,71.4907 390.5,73.5C 390.552,70.6538 391.552,68.3204 393.5,66.5 Z"/></g>
<g><path style="opacity:0.106" fill="#bcbcbc" d="M 409.5,65.5 C 409.298,72.5087 407.965,79.1754 405.5,85.5C 405.959,78.54 407.292,71.8733 409.5,65.5 Z"/></g>
<g><path style="opacity:0.004" fill="#fefffe" d="M 586.5,72.5 C 587.833,73.1667 587.833,73.1667 586.5,72.5 Z"/></g>
<g><path style="opacity:0.031" fill="#dbdbdb" d="M 390.5,73.5 C 389.674,76.4848 388.341,79.1515 386.5,81.5C 386.794,78.2459 388.127,75.5792 390.5,73.5 Z"/></g>
<g><path style="opacity:0.004" fill="#fefffe" d="M -0.5,81.5 C 0.833333,82.1667 0.833333,82.1667 -0.5,81.5 Z"/></g>
<g><path style="opacity:0.031" fill="#dcdcdc" d="M 385.5,83.5 C 385.008,85.8185 384.008,87.8185 382.5,89.5C 382.461,86.911 383.461,84.911 385.5,83.5 Z"/></g>
<g><path style="opacity:0.482" fill="#7e7e7e" d="M 293.5,91.5 C 284.162,90.2013 274.829,90.2013 265.5,91.5C 274.84,87.5594 284.174,87.5594 293.5,91.5 Z"/></g>
<g><path style="opacity:0.996" fill="#040404" d="M 293.5,91.5 C 295.214,92.7384 297.214,93.405 299.5,93.5C 302.004,94.5839 304.337,95.9172 306.5,97.5C 307.262,99.2624 308.596,100.262 310.5,100.5C 310.81,102.144 311.81,103.144 313.5,103.5C 314.08,105.749 315.413,107.415 317.5,108.5C 317.427,110.027 318.094,111.027 319.5,111.5C 321.008,113.181 322.008,115.181 322.5,117.5C 322.402,119.553 323.069,121.22 324.5,122.5C 327.07,130.874 327.07,139.207 324.5,147.5C 322.98,149.89 321.98,152.557 321.5,155.5C 321.34,157.153 320.674,158.486 319.5,159.5C 318.094,159.973 317.427,160.973 317.5,162.5C 317.167,163.5 316.5,164.167 315.5,164.5C 314.094,164.973 313.427,165.973 313.5,167.5C 313.167,168.5 312.5,169.167 311.5,169.5C 309.973,169.427 308.973,170.094 308.5,171.5C 305.165,174.839 301.165,177.172 296.5,178.5C 294.214,178.595 292.214,179.262 290.5,180.5C 283.457,182.988 276.457,182.988 269.5,180.5C 266.855,178.69 263.855,177.69 260.5,177.5C 259.391,177.443 258.391,177.11 257.5,176.5C 256.564,175.026 255.23,174.026 253.5,173.5C 253.027,172.094 252.027,171.427 250.5,171.5C 248.833,169.167 246.833,167.167 244.5,165.5C 243.5,165.167 242.833,164.5 242.5,163.5C 241.89,161.566 240.89,159.899 239.5,158.5C 238.662,158.158 238.328,157.492 238.5,156.5C 237.736,153.982 236.736,151.649 235.5,149.5C 234.566,148.432 234.232,147.099 234.5,145.5C 234.5,138.833 234.5,132.167 234.5,125.5C 234.366,123.708 234.699,122.042 235.5,120.5C 237.213,119.365 237.88,117.698 237.5,115.5C 238.263,113.632 239.263,111.965 240.5,110.5C 242.587,109.415 243.92,107.749 244.5,105.5C 246.167,104.5 247.5,103.167 248.5,101.5C 250.749,100.92 252.415,99.5869 253.5,97.5C 254.29,96.5987 255.29,95.9321 256.5,95.5C 258.027,95.573 259.027,94.9063 259.5,93.5C 261.698,93.8799 263.365,93.2132 264.5,91.5C 264.833,91.5 265.167,91.5 265.5,91.5C 274.829,90.2013 284.162,90.2013 293.5,91.5 Z"/></g>
<g><path style="opacity:0.02" fill="#cccccc" d="M 293.5,91.5 C 295.898,91.2594 297.898,91.9261 299.5,93.5C 297.214,93.405 295.214,92.7384 293.5,91.5 Z"/></g>
<g><path style="opacity:0.42" fill="#919191" d="M 264.5,91.5 C 263.365,93.2132 261.698,93.8799 259.5,93.5C 260.93,92.4625 262.597,91.7959 264.5,91.5 Z"/></g>
<g><path style="opacity:0.008" fill="#fefffe" d="M 408.5,92.5 C 409.833,93.1667 409.833,93.1667 408.5,92.5 Z"/></g>
<g><path style="opacity:0.204" fill="#b3b3b3" d="M 259.5,93.5 C 259.027,94.9063 258.027,95.573 256.5,95.5C 256.973,94.0937 257.973,93.427 259.5,93.5 Z"/></g>
<g><path style="opacity:0.125" fill="#cccccc" d="M 381.5,91.5 C 380.921,94.3311 379.588,96.6644 377.5,98.5C 378.079,95.6689 379.412,93.3356 381.5,91.5 Z"/></g>
<g><path style="opacity:0.063" fill="#c3c3c3" d="M 404.5,91.5 C 404.435,94.4282 403.768,97.0948 402.5,99.5C 402.111,96.4467 402.777,93.78 404.5,91.5 Z"/></g>
<g><path style="opacity:0.02" fill="#c1d9d8" d="M 306.5,97.5 C 308.404,97.7376 309.738,98.7376 310.5,100.5C 308.596,100.262 307.262,99.2624 306.5,97.5 Z"/></g>
<g><path style="opacity:0.008" fill="#fefffe" d="M 334.5,98.5 C 335.833,99.1667 335.833,99.1667 334.5,98.5 Z"/></g>
<g><path style="opacity:0.514" fill="#5a5a5a" d="M 253.5,97.5 C 252.415,99.5869 250.749,100.92 248.5,101.5C 249.585,99.4131 251.251,98.0798 253.5,97.5 Z"/></g>
<g><path style="opacity:0.004" fill="#d6d6d6" d="M 310.5,100.5 C 312.19,100.856 313.19,101.856 313.5,103.5C 311.81,103.144 310.81,102.144 310.5,100.5 Z"/></g>
<g><path style="opacity:0.184" fill="#b0b0b0" d="M 248.5,101.5 C 247.5,103.167 246.167,104.5 244.5,105.5C 244.833,103.167 246.167,101.833 248.5,101.5 Z"/></g>
<g><path style="opacity:0.067" fill="#d5d5d5" d="M 376.5,100.5 C 375.921,103.331 374.588,105.664 372.5,107.5C 373.079,104.669 374.412,102.336 376.5,100.5 Z"/></g>
<g><path style="opacity:0.102" fill="#bfbfbf" d="M 313.5,103.5 C 315.587,104.585 316.92,106.251 317.5,108.5C 315.413,107.415 314.08,105.749 313.5,103.5 Z"/></g>
<g><path style="opacity:0.11" fill="#a1a1a1" d="M 244.5,105.5 C 243.92,107.749 242.587,109.415 240.5,110.5C 241.08,108.251 242.413,106.585 244.5,105.5 Z"/></g>
<g><path style="opacity:0.016" fill="#cecece" d="M 400.5,106.5 C 400.785,109.829 400.118,112.829 398.5,115.5C 398.42,112.219 399.087,109.219 400.5,106.5 Z"/></g>
<g><path style="opacity:0.129" fill="#c5c5c5" d="M 317.5,108.5 C 318.906,108.973 319.573,109.973 319.5,111.5C 318.094,111.027 317.427,110.027 317.5,108.5 Z"/></g>
<g><path style="opacity:0.165" fill="#cfcfcf" d="M 371.5,109.5 C 370.59,112.992 368.924,115.992 366.5,118.5C 367.39,115.052 369.057,112.052 371.5,109.5 Z"/></g>
<g><path style="opacity:0.482" fill="#a4a4a4" d="M 237.5,115.5 C 237.88,117.698 237.213,119.365 235.5,120.5C 235.402,118.447 236.069,116.78 237.5,115.5 Z"/></g>
<g><path style="opacity:0.137" fill="#959595" d="M 398.5,115.5 C 398.405,117.786 397.738,119.786 396.5,121.5C 396.259,119.102 396.926,117.102 398.5,115.5 Z"/></g>
<g><path style="opacity:0.004" fill="#fefffe" d="M 452.5,118.5 C 453.833,119.167 453.833,119.167 452.5,118.5 Z"/></g>
<g><path style="opacity:0.027" fill="#e3e3e3" d="M 322.5,117.5 C 323.931,118.78 324.598,120.447 324.5,122.5C 323.069,121.22 322.402,119.553 322.5,117.5 Z"/></g>
<g><path style="opacity:0.18" fill="#c7c7c7" d="M 366.5,118.5 C 366.573,120.027 365.906,121.027 364.5,121.5C 364.427,119.973 365.094,118.973 366.5,118.5 Z"/></g>
<g><path style="opacity:0.106" fill="#d6d6d6" d="M 364.5,121.5 C 364.573,123.027 363.906,124.027 362.5,124.5C 362.427,122.973 363.094,121.973 364.5,121.5 Z"/></g>
<g><path style="opacity:0.18" fill="#dbdbdb" d="M 362.5,124.5 C 362.25,126.674 361.25,128.341 359.5,129.5C 359.75,127.326 360.75,125.659 362.5,124.5 Z"/></g>
<g><path style="opacity:0.137" fill="#b7b7b7" d="M 396.5,123.5 C 396.074,127.902 394.74,131.902 392.5,135.5C 392.861,131.085 394.194,127.085 396.5,123.5 Z"/></g>
<g><path style="opacity:0.016" fill="#d1d1d1" d="M 173.5,134.5 C 171.983,134.489 170.816,133.823 170,132.5C 169.536,133.094 169.369,133.761 169.5,134.5C 168.596,133.791 168.263,132.791 168.5,131.5C 170.933,131.273 172.599,132.273 173.5,134.5 Z"/></g>
<g><path style="opacity:0.516" fill="#909090" d="M 234.5,125.5 C 234.5,132.167 234.5,138.833 234.5,145.5C 231.906,138.826 231.906,132.159 234.5,125.5 Z"/></g>
<g><path style="opacity:0.22" fill="#c1c1c1" d="M 358.5,131.5 C 358.262,133.404 357.262,134.738 355.5,135.5C 355.738,133.596 356.738,132.262 358.5,131.5 Z"/></g>
<g><path style="opacity:0.004" fill="#dddddd" d="M 173.5,134.5 C 175.404,134.738 176.738,135.738 177.5,137.5C 175.596,137.262 174.262,136.262 173.5,134.5 Z"/></g>
<g><path style="opacity:0.008" fill="#dddddd" d="M 169.5,134.5 C 170.906,134.973 171.573,135.973 171.5,137.5C 170.094,137.027 169.427,136.027 169.5,134.5 Z"/></g>
<g><path style="opacity:0.008" fill="#e6e6e6" d="M 177.5,137.5 C 179.027,137.427 180.027,138.094 180.5,139.5C 178.973,139.573 177.973,138.906 177.5,137.5 Z"/></g>
<g><path style="opacity:0.008" fill="#fefffe" d="M 500.5,138.5 C 501.833,139.167 501.833,139.167 500.5,138.5 Z"/></g>
<g><path style="opacity:0.004" fill="#fefffe" d="M 524.5,138.5 C 525.833,139.167 525.833,139.167 524.5,138.5 Z"/></g>
<g><path style="opacity:0.235" fill="#bcbcbc" d="M 355.5,136.5 C 354.189,139.135 352.522,141.469 350.5,143.5C 351.069,140.281 352.736,137.948 355.5,136.5 Z"/></g>
<g><path style="opacity:0.008" fill="#c8c8c8" d="M 180.5,139.5 C 183.155,140.497 185.155,142.164 186.5,144.5C 183.845,143.503 181.845,141.836 180.5,139.5 Z"/></g>
<g><path style="opacity:0.008" fill="#bfbfbf" d="M 171.5,137.5 C 173.796,138.733 175.13,140.733 175.5,143.5C 173.684,141.882 172.351,139.882 171.5,137.5 Z"/></g>
<g><path style="opacity:0.004" fill="#d9d9d9" d="M 175.5,143.5 C 176.5,143.833 177.167,144.5 177.5,145.5C 176.167,145.5 175.5,144.833 175.5,143.5 Z"/></g>
<g><path style="opacity:0.004" fill="#e9e9e9" d="M 188.5,145.5 C 189.833,145.5 190.5,146.167 190.5,147.5C 189.5,147.167 188.833,146.5 188.5,145.5 Z"/></g>
<g><path style="opacity:0.082" fill="#8c8c8c" d="M 390.5,142.5 C 390.267,145.542 389.267,148.208 387.5,150.5C 387.733,147.458 388.733,144.792 390.5,142.5 Z"/></g>
<g><path style="opacity:0.141" fill="#cacaca" d="M 350.5,143.5 C 349.92,145.749 348.587,147.415 346.5,148.5C 347.08,146.251 348.413,144.585 350.5,143.5 Z"/></g>
<g><path style="opacity:0.004" fill="#e1e1e1" d="M 177.5,146.5 C 178.906,146.973 179.573,147.973 179.5,149.5C 178.094,149.027 177.427,148.027 177.5,146.5 Z"/></g>
<g><path style="opacity:0.263" fill="#aaaaaa" d="M 192.5,148.5 C 194.23,149.026 195.564,150.026 196.5,151.5C 194.368,151.446 193.035,150.446 192.5,148.5 Z"/></g>
<g><path style="opacity:0.09" fill="#d9d9d9" d="M 346.5,149.5 C 346.167,150.5 345.5,151.167 344.5,151.5C 344.5,150.167 345.167,149.5 346.5,149.5 Z"/></g>
<g><path style="opacity:0.263" fill="#a6a6a6" d="M 196.5,151.5 C 198.23,152.026 199.564,153.026 200.5,154.5C 198.368,154.446 197.035,153.446 196.5,151.5 Z"/></g>
<g><path style="opacity:0.082" fill="#d0d0d0" d="M 235.5,149.5 C 236.736,151.649 237.736,153.982 238.5,156.5C 236.166,154.824 235.166,152.491 235.5,149.5 Z"/></g>
<g><path style="opacity:0.137" fill="#b8b8b8" d="M 324.5,147.5 C 324.585,150.649 323.585,153.316 321.5,155.5C 321.98,152.557 322.98,149.89 324.5,147.5 Z"/></g>
<g><path style="opacity:0.184" fill="#b7b7b7" d="M 344.5,151.5 C 344.573,153.027 343.906,154.027 342.5,154.5C 342.427,152.973 343.094,151.973 344.5,151.5 Z"/></g>
<g><path style="opacity:0.022" fill="#e1e1e1" d="M 181.5,152.5 C 183.25,153.659 184.25,155.326 184.5,157.5C 182.75,156.341 181.75,154.674 181.5,152.5 Z"/></g>
<g><path style="opacity:0.008" fill="#dddddd" d="M 200.5,154.5 C 202.404,154.738 203.738,155.738 204.5,157.5C 202.596,157.262 201.262,156.262 200.5,154.5 Z"/></g>
<g><path style="opacity:0.376" fill="#9b9b9b" d="M 342.5,154.5 C 342.262,156.404 341.262,157.738 339.5,158.5C 339.738,156.596 340.738,155.262 342.5,154.5 Z"/></g>
<g><path style="opacity:0.016" fill="#cfcfcf" d="M 205.5,158.5 C 207.027,158.427 208.027,159.094 208.5,160.5C 206.973,160.573 205.973,159.906 205.5,158.5 Z"/></g>
<g><path style="opacity:0.024" fill="#d9d9d9" d="M 239.5,158.5 C 240.89,159.899 241.89,161.566 242.5,163.5C 240.273,162.599 239.273,160.933 239.5,158.5 Z"/></g>
<g><path style="opacity:0.455" fill="#808080" d="M 339.5,158.5 C 339.573,160.027 338.906,161.027 337.5,161.5C 337.427,159.973 338.094,158.973 339.5,158.5 Z"/></g>
<g><path style="opacity:0.008" fill="#dddddd" d="M 319.5,159.5 C 319.573,161.027 318.906,162.027 317.5,162.5C 317.427,160.973 318.094,159.973 319.5,159.5 Z"/></g>
<g><path style="opacity:0.427" fill="#909090" d="M 187.5,162.5 C 189.446,163.035 190.446,164.368 190.5,166.5C 189.026,165.564 188.026,164.23 187.5,162.5 Z"/></g>
<g><path style="opacity:0.329" fill="#9e9e9e" d="M 208.5,160.5 C 210.23,161.026 211.564,162.026 212.5,163.5C 210.368,163.446 209.035,162.446 208.5,160.5 Z"/></g>
<g><path style="opacity:0.416" fill="#838383" d="M 335.5,163.5 C 335.573,165.027 334.906,166.027 333.5,166.5C 333.427,164.973 334.094,163.973 335.5,163.5 Z"/></g>
<g><path style="opacity:0.031" fill="#c8c8c8" d="M 315.5,164.5 C 315.573,166.027 314.906,167.027 313.5,167.5C 313.427,165.973 314.094,164.973 315.5,164.5 Z"/></g>
<g><path style="opacity:0.008" fill="#fefffe" d="M 114.5,166.5 C 115.833,167.167 115.833,167.167 114.5,166.5 Z"/></g>
<g><path style="opacity:0.004" fill="#c5c5c5" d="M 215.5,165.5 C 217.754,166.124 219.421,167.457 220.5,169.5C 218.205,168.864 216.539,167.531 215.5,165.5 Z"/></g>
<g><path style="opacity:0.012" fill="#cdcdcd" d="M 244.5,165.5 C 246.833,167.167 248.833,169.167 250.5,171.5C 247.5,170.5 245.5,168.5 244.5,165.5 Z"/></g>
<g><path style="opacity:0.016" fill="#ebebeb" d="M 190.5,167.5 C 191.906,167.973 192.573,168.973 192.5,170.5C 191.094,170.027 190.427,169.027 190.5,167.5 Z"/></g>
<g><path style="opacity:0.004" fill="#d9d9d9" d="M 220.5,169.5 C 221.833,169.5 222.5,170.167 222.5,171.5C 221.5,171.167 220.833,170.5 220.5,169.5 Z"/></g>
<g><path style="opacity:0.082" fill="#cdcdcd" d="M 332.5,167.5 C 331.833,168.833 330.833,169.833 329.5,170.5C 329.5,168.5 330.5,167.5 332.5,167.5 Z"/></g>
<g><path style="opacity:0.016" fill="#d7d7d7" d="M 311.5,169.5 C 311.027,170.906 310.027,171.573 308.5,171.5C 308.973,170.094 309.973,169.427 311.5,169.5 Z"/></g>
<g><path style="opacity:0.051" fill="#d0d0d0" d="M 222.5,171.5 C 225.292,171.622 227.292,172.956 228.5,175.5C 226.223,174.551 224.223,173.218 222.5,171.5 Z"/></g>
<g><path style="opacity:0.243" fill="#8f8f8f" d="M 250.5,171.5 C 252.027,171.427 253.027,172.094 253.5,173.5C 251.973,173.573 250.973,172.906 250.5,171.5 Z"/></g>
<g><path style="opacity:0.004" fill="#fefffe" d="M 106.5,173.5 C 107.833,174.167 107.833,174.167 106.5,173.5 Z"/></g>
<g><path style="opacity:0.184" fill="#a5a5a5" d="M 329.5,170.5 C 328.581,173.089 326.914,175.089 324.5,176.5C 325.419,173.911 327.086,171.911 329.5,170.5 Z"/></g>
<g><path style="opacity:0.004" fill="#dadada" d="M 253.5,173.5 C 255.23,174.026 256.564,175.026 257.5,176.5C 255.368,176.446 254.035,175.446 253.5,173.5 Z"/></g>
<g><path style="opacity:0.263" fill="#a4a4a4" d="M 228.5,175.5 C 230.23,176.026 231.564,177.026 232.5,178.5C 230.368,178.446 229.035,177.446 228.5,175.5 Z"/></g>
<g><path style="opacity:0.675" fill="#6b6b6b" d="M 260.5,177.5 C 263.855,177.69 266.855,178.69 269.5,180.5C 265.956,180.868 262.956,179.868 260.5,177.5 Z"/></g>
<g><path style="opacity:0.031" fill="#d1d1d1" d="M 196.5,177.5 C 197.906,177.973 198.573,178.973 198.5,180.5C 197.094,180.027 196.427,179.027 196.5,177.5 Z"/></g>
<g><path style="opacity:0.022" fill="#cdcdcd" d="M 296.5,178.5 C 294.898,180.074 292.898,180.741 290.5,180.5C 292.214,179.262 294.214,178.595 296.5,178.5 Z"/></g>
<g><path style="opacity:0.275" fill="#a5a5a5" d="M 232.5,178.5 C 234.23,179.026 235.564,180.026 236.5,181.5C 234.368,181.446 233.035,180.446 232.5,178.5 Z"/></g>
<g><path style="opacity:0.008" fill="#e3e3e3" d="M 236.5,181.5 C 238.027,181.427 239.027,182.094 239.5,183.5C 237.973,183.573 236.973,182.906 236.5,181.5 Z"/></g>
<g><path style="opacity:0.008" fill="#fefffe" d="M 69.5,182.5 C 70.8333,183.167 70.8333,183.167 69.5,182.5 Z"/></g>
<g><path style="opacity:0.004" fill="#c5c5c5" d="M 239.5,183.5 C 241.754,184.124 243.421,185.457 244.5,187.5C 242.205,186.864 240.539,185.531 239.5,183.5 Z"/></g>
<g><path style="opacity:0.29" fill="#838383" d="M 318.5,182.5 C 318.5,184.5 317.5,185.5 315.5,185.5C 316.167,184.167 317.167,183.167 318.5,182.5 Z"/></g>
<g><path style="opacity:0.004" fill="#dedede" d="M 200.5,184.5 C 201.906,184.973 202.573,185.973 202.5,187.5C 201.094,187.027 200.427,186.027 200.5,184.5 Z"/></g>
<g><path style="opacity:0.004" fill="#cfcfcf" d="M 245.5,188.5 C 247.027,188.427 248.027,189.094 248.5,190.5C 246.973,190.573 245.973,189.906 245.5,188.5 Z"/></g>
<g><path style="opacity:0.498" fill="#5c5c5c" d="M 315.5,185.5 C 314.833,188.167 313.167,189.833 310.5,190.5C 311.833,188.5 313.5,186.833 315.5,185.5 Z"/></g>
<g><path style="opacity:0.545" fill="#8e8e8e" d="M 248.5,190.5 C 250.23,191.026 251.564,192.026 252.5,193.5C 250.368,193.446 249.035,192.446 248.5,190.5 Z"/></g>
<g><path style="opacity:0.486" fill="#797979" d="M 205.5,193.5 C 207.048,193.821 207.715,194.821 207.5,196.5C 206.599,195.71 205.932,194.71 205.5,193.5 Z"/></g>
<g><path style="opacity:0.004" fill="#d7d7d7" d="M 252.5,193.5 C 254.404,193.738 255.738,194.738 256.5,196.5C 254.596,196.262 253.262,195.262 252.5,193.5 Z"/></g>
<g><path style="opacity:0.204" fill="#afafaf" d="M 310.5,190.5 C 308.761,193.243 306.427,195.243 303.5,196.5C 305.239,193.757 307.573,191.757 310.5,190.5 Z"/></g>
<g><path style="opacity:0.004" fill="#bfbfbf" d="M 256.5,196.5 C 259.4,197.443 261.733,199.11 263.5,201.5C 260.561,200.544 258.228,198.877 256.5,196.5 Z"/></g>
<g><path style="opacity:0.008" fill="#fefffe" d="M 458.5,199.5 C 459.833,200.167 459.833,200.167 458.5,199.5 Z"/></g>
<g><path style="opacity:0.506" fill="#777777" d="M 301.5,198.5 C 300.415,200.587 298.749,201.92 296.5,202.5C 297.585,200.413 299.251,199.08 301.5,198.5 Z"/></g>
<g><path style="opacity:0.024" fill="#b8b8b8" d="M 263.5,201.5 C 265.23,202.026 266.564,203.026 267.5,204.5C 265.368,204.446 264.035,203.446 263.5,201.5 Z"/></g>
<g><path style="opacity:0.341" fill="#808080" d="M 296.5,202.5 C 295.738,204.262 294.404,205.262 292.5,205.5C 293.262,203.738 294.596,202.738 296.5,202.5 Z"/></g>
<g><path style="opacity:0.008" fill="#fefffe" d="M 524.5,204.5 C 525.833,205.167 525.833,205.167 524.5,204.5 Z"/></g>
<g><path style="opacity:0.541" fill="#969696" d="M 267.5,204.5 C 269.23,205.026 270.564,206.026 271.5,207.5C 269.368,207.446 268.035,206.446 267.5,204.5 Z"/></g>
<g><path style="opacity:0.282" fill="#8a8a8a" d="M 292.5,205.5 C 292.027,206.906 291.027,207.573 289.5,207.5C 289.973,206.094 290.973,205.427 292.5,205.5 Z"/></g>
<g><path style="opacity:0.004" fill="#dfdfdf" d="M 271.5,207.5 C 273.027,207.427 274.027,208.094 274.5,209.5C 272.973,209.573 271.973,208.906 271.5,207.5 Z"/></g>
<g><path style="opacity:0.251" fill="#939393" d="M 289.5,207.5 C 289.027,208.906 288.027,209.573 286.5,209.5C 286.973,208.094 287.973,207.427 289.5,207.5 Z"/></g>
<g><path style="opacity:0.004" fill="#fefffe" d="M 58.5,217.5 C 59.8333,218.167 59.8333,218.167 58.5,217.5 Z"/></g>
<g><path style="opacity:0.004" fill="#fefffe" d="M 427.5,219.5 C 428.833,220.167 428.833,220.167 427.5,219.5 Z"/></g>
<g><path style="opacity:0.004" fill="#fefffe" d="M 26.5,220.5 C 27.8333,221.167 27.8333,221.167 26.5,220.5 Z"/></g>
<g><path style="opacity:0.008" fill="#fefffe" d="M 452.5,220.5 C 453.833,221.167 453.833,221.167 452.5,220.5 Z"/></g>
<g><path style="opacity:0.208" fill="#787878" d="M 223.5,229.5 C 225.048,229.821 225.715,230.821 225.5,232.5C 224.599,231.71 223.932,230.71 223.5,229.5 Z"/></g>
<g><path style="opacity:0.008" fill="#fefffe" d="M 48.5,234.5 C 49.8333,235.167 49.8333,235.167 48.5,234.5 Z"/></g>
<g><path style="opacity:0.008" fill="#fefffe" d="M 102.5,240.5 C 103.833,241.167 103.833,241.167 102.5,240.5 Z"/></g>
<g><path style="opacity:0.008" fill="#fefffe" d="M 449.5,248.5 C 450.833,249.167 450.833,249.167 449.5,248.5 Z"/></g>
<g><path style="opacity:0.075" fill="#bdbdbd" d="M 239.5,268.5 C 241.267,270.792 242.267,273.458 242.5,276.5C 240.733,274.208 239.733,271.542 239.5,268.5 Z"/></g>
<g><path style="opacity:0.008" fill="#fefffe" d="M 16.5,274.5 C 17.8333,275.167 17.8333,275.167 16.5,274.5 Z"/></g>
<g><path style="opacity:0.012" fill="#bdbdbd" d="M 244.5,282.5 C 246.072,285.215 247.072,288.215 247.5,291.5C 245.528,288.916 244.528,285.916 244.5,282.5 Z"/></g>
<g><path style="opacity:0.857" fill="#6e6e6e" d="M 328.5,289.5 C 328.25,291.674 327.25,293.341 325.5,294.5C 325.5,292.833 325.5,291.167 325.5,289.5C 326.5,289.5 327.5,289.5 328.5,289.5 Z"/></g>
<g><path style="opacity:0.008" fill="#fefffe" d="M 210.5,292.5 C 211.833,293.167 211.833,293.167 210.5,292.5 Z"/></g>
<g><path style="opacity:0.004" fill="#fefffe" d="M 235.5,298.5 C 236.833,299.167 236.833,299.167 235.5,298.5 Z"/></g>
<g><path style="opacity:0.008" fill="#c8c8c8" d="M 248.5,296.5 C 250.277,299.505 251.277,302.838 251.5,306.5C 249.723,303.495 248.723,300.162 248.5,296.5 Z"/></g>
<g><path style="opacity:0.004" fill="#fefffe" d="M 524.5,310.5 C 525.833,311.167 525.833,311.167 524.5,310.5 Z"/></g>
<g><path style="opacity:0.008" fill="#c2c2c2" d="M 253.5,315.5 C 255.04,317.838 255.706,320.505 255.5,323.5C 254.232,321.095 253.565,318.428 253.5,315.5 Z"/></g>
<g><path style="opacity:0.008" fill="#fefffe" d="M 10.5,333.5 C 11.8333,334.167 11.8333,334.167 10.5,333.5 Z"/></g>
<g><path style="opacity:0.008" fill="#fefffe" d="M 566.5,334.5 C 567.833,335.167 567.833,335.167 566.5,334.5 Z"/></g>
<g><path style="opacity:0.008" fill="#fefffe" d="M 519.5,340.5 C 520.833,341.167 520.833,341.167 519.5,340.5 Z"/></g>
<g><path style="opacity:0.004" fill="#fefffe" d="M 136.5,348.5 C 137.833,349.167 137.833,349.167 136.5,348.5 Z"/></g>
<g><path style="opacity:0.004" fill="#fefffe" d="M 523.5,362.5 C 524.833,363.167 524.833,363.167 523.5,362.5 Z"/></g>
<g><path style="opacity:0.008" fill="#fefffe" d="M 305.5,376.5 C 306.833,377.167 306.833,377.167 305.5,376.5 Z"/></g>
<g><path style="opacity:0.108" fill="#c6c6c6" d="M 261.5,364.5 C 263.251,374.275 263.917,384.275 263.5,394.5C 263.5,396.167 263.5,397.833 263.5,399.5C 262.571,388.002 261.904,376.335 261.5,364.5 Z"/></g>
<g><path style="opacity:0.004" fill="#d6d6d6" d="M 270.5,390.5 C 270.573,392.027 269.906,393.027 268.5,393.5C 268.427,391.973 269.094,390.973 270.5,390.5 Z"/></g>
<g><path style="opacity:0.212" fill="#6e6e6e" d="M 263.5,394.5 C 264.268,395.263 264.768,396.263 265,397.5C 265.383,396.944 265.883,396.611 266.5,396.5C 266.315,398.196 265.481,399.529 264,400.5C 263.601,400.272 263.435,399.938 263.5,399.5C 263.5,397.833 263.5,396.167 263.5,394.5 Z"/></g>
</svg>
